# xmcd
# 
# Track frame offsets:
#     187
#     17615
#     43665
# 
# Disc length: 1093
# 
# Revision: 1
# Processed by: cddbd v1.5.2PL0 Copyright (c) Steve Scherf et al.
# Submitted via: fre:ac v1.0.31
# 
DISCID=1a044303
DTITLE=THE HIGH-LOWS - ミサイルマン
DYEAR=1995
DGENRE=Rock
TTITLE0=ミサイルマン
TTITLE1=ママミルク
TTITLE2=グッドバイ
EXTD=YEAR: 1995
EXTT0=
EXTT1=
EXTT2=
PLAYORDER=
